<mxfile host="app.diagrams.net" agent="Mozilla/5.0 (Macintosh; Intel Mac OS X 10_15_7) AppleWebKit/537.36 (KHTML, like Gecko) Chrome/128.0.0.0 Safari/537.36 Edg/128.0.0.0" version="24.7.10">
  <diagram name="第 1 页" id="tqE3gzZEH6ja-KUfK23F">
    <mxGraphModel dx="1426" dy="764" grid="1" gridSize="10" guides="1" tooltips="1" connect="1" arrows="1" fold="1" page="1" pageScale="1" pageWidth="827" pageHeight="1169" math="0" shadow="0">
      <root>
        <mxCell id="0" />
        <mxCell id="1" parent="0" />
        <mxCell id="o4yZ6VWa6EbwQXK07JsN-5" style="edgeStyle=orthogonalEdgeStyle;rounded=0;orthogonalLoop=1;jettySize=auto;html=1;exitX=1;exitY=0.5;exitDx=0;exitDy=0;entryX=0;entryY=0.25;entryDx=0;entryDy=0;sketch=1;curveFitting=1;jiggle=2;" edge="1" parent="1" source="o4yZ6VWa6EbwQXK07JsN-1" target="o4yZ6VWa6EbwQXK07JsN-4">
          <mxGeometry relative="1" as="geometry" />
        </mxCell>
        <mxCell id="o4yZ6VWa6EbwQXK07JsN-1" value="IndexIVF::search" style="rounded=0;whiteSpace=wrap;html=1;sketch=1;curveFitting=1;jiggle=2;" vertex="1" parent="1">
          <mxGeometry x="350" y="380" width="100" height="40" as="geometry" />
        </mxCell>
        <mxCell id="o4yZ6VWa6EbwQXK07JsN-4" value="IndexIVFAdditiveQuantizerFastScan::search" style="swimlane;whiteSpace=wrap;html=1;sketch=1;curveFitting=1;jiggle=2;" vertex="1" parent="1">
          <mxGeometry x="500" y="320" width="280" height="50" as="geometry" />
        </mxCell>
        <mxCell id="o4yZ6VWa6EbwQXK07JsN-9" style="edgeStyle=orthogonalEdgeStyle;rounded=0;orthogonalLoop=1;jettySize=auto;html=1;exitX=1;exitY=0.25;exitDx=0;exitDy=0;entryX=0;entryY=0.25;entryDx=0;entryDy=0;sketch=1;curveFitting=1;jiggle=2;" edge="1" parent="1" source="o4yZ6VWa6EbwQXK07JsN-6" target="o4yZ6VWa6EbwQXK07JsN-8">
          <mxGeometry relative="1" as="geometry" />
        </mxCell>
        <mxCell id="o4yZ6VWa6EbwQXK07JsN-6" value="IndexIVFFastScan::search" style="swimlane;whiteSpace=wrap;html=1;sketch=1;curveFitting=1;jiggle=2;" vertex="1" parent="1">
          <mxGeometry x="827" y="300" width="233" height="80" as="geometry" />
        </mxCell>
        <mxCell id="o4yZ6VWa6EbwQXK07JsN-7" style="edgeStyle=orthogonalEdgeStyle;rounded=0;orthogonalLoop=1;jettySize=auto;html=1;exitX=1;exitY=0.25;exitDx=0;exitDy=0;entryX=0.004;entryY=0.15;entryDx=0;entryDy=0;entryPerimeter=0;sketch=1;curveFitting=1;jiggle=2;" edge="1" parent="1" source="o4yZ6VWa6EbwQXK07JsN-4" target="o4yZ6VWa6EbwQXK07JsN-6">
          <mxGeometry relative="1" as="geometry" />
        </mxCell>
        <mxCell id="o4yZ6VWa6EbwQXK07JsN-8" value="IndexIVFFastScan::search_preassigned" style="swimlane;whiteSpace=wrap;html=1;sketch=1;curveFitting=1;jiggle=2;" vertex="1" parent="1">
          <mxGeometry x="1130" y="300" width="280" height="70" as="geometry" />
        </mxCell>
        <mxCell id="o4yZ6VWa6EbwQXK07JsN-11" value="IndexIVFFastScan::search_dispatch_implem" style="swimlane;whiteSpace=wrap;html=1;sketch=1;curveFitting=1;jiggle=2;" vertex="1" parent="1">
          <mxGeometry x="1450" y="300" width="280" height="70" as="geometry" />
        </mxCell>
        <mxCell id="o4yZ6VWa6EbwQXK07JsN-12" style="edgeStyle=orthogonalEdgeStyle;rounded=0;orthogonalLoop=1;jettySize=auto;html=1;exitX=1;exitY=0.25;exitDx=0;exitDy=0;entryX=0;entryY=0.095;entryDx=0;entryDy=0;entryPerimeter=0;sketch=1;curveFitting=1;jiggle=2;" edge="1" parent="1" source="o4yZ6VWa6EbwQXK07JsN-8" target="o4yZ6VWa6EbwQXK07JsN-11">
          <mxGeometry relative="1" as="geometry" />
        </mxCell>
      </root>
    </mxGraphModel>
  </diagram>
</mxfile>
